# xmcd
# 
# Track frame offsets:
#     150
#     24403
#     51471
#     75852
#     110149
#     137122
#     173350
# 
# Disc length: 2751
# 
# Revision: 0
# Processed by: cddbd v1.5.2PL0 Copyright (c) Steve Scherf et al.
# Submitted via: BonkEnc v1.0.15
# 
DISCID=500abd07
DTITLE=David Gilmour - 1984-Live CD2
DYEAR=1984
DGENRE=Rock
TTITLE0=Cruise
TTITLE1=Shout And Sweet
TTITLE2=You Know I'm Right
TTITLE3=Murder
TTITLE4=Blue Light
TTITLE5=Near The End
TTITLE6=Comfortably Numb
EXTD=
EXTT0=
EXTT1=
EXTT2=
EXTT3=
EXTT4=
EXTT5=
EXTT6=
PLAYORDER=
